<?xml version="1.0" encoding="UTF-8" standalone="no"?>
<!DOCTYPE svg PUBLIC "-//W3C//DTD SVG 1.1//EN" "http://www.w3.org/Graphics/SVG/1.1/DTD/svg11.dtd">
<svg width="100%" height="100%" viewBox="0 0 50 50" version="1.1" xmlns="http://www.w3.org/2000/svg" xmlns:xlink="http://www.w3.org/1999/xlink" xml:space="preserve" style="fill-rule:evenodd;clip-rule:evenodd;stroke-linejoin:round;stroke-miterlimit:1.41421;">
    <g transform="matrix(0.666702,0,0,0.66668,7.66575,7.66865)">
        <circle cx="26" cy="26" r="24" style="fill:rgb(236,203,203);"/>
    </g>
    <g transform="matrix(3.08229,0.267339,-0.293945,3.38905,-21.4243,-43.1003)">
        <path d="M15.561,15.653C14.521,16.674 15.486,17.9 16.899,18.177C19.42,18.67 19.826,19.591 19.781,20.815C19.737,22 18.775,22.86 17.102,22.944C15.767,23.012 14.797,22.327 14.547,21.88C14.511,21.814 14.515,21.711 14.515,21.59C14.515,21.504 14.519,21.433 14.527,21.376C14.535,21.319 14.546,21.273 14.562,21.238C14.578,21.203 14.597,21.179 14.621,21.165C14.644,21.151 14.671,21.144 14.703,21.144C14.757,21.144 15.601,22.067 16.589,22.042C18.265,21.999 18.634,20.415 17.3,19.748C16.281,19.239 13.694,18.948 13.949,16.804C14.119,15.374 15.404,14.563 16.846,14.581C18.318,14.6 18.998,15.404 19.006,15.438C19.014,15.471 19.106,16.721 18.919,16.425C18.227,15.329 16.426,14.804 15.561,15.653Z" style="fill:rgb(185,67,67);fill-rule:nonzero;"/>
    </g>
    <g transform="matrix(1.10256,0,0,1,-2.01187,-1.62756e-06)">
        <path d="M35,41.726C33.094,43.688 29.718,46.013 24.424,46.003C16.22,45.988 4.843,38.735 5,25C5.152,11.653 15.951,3.884 24.424,4.003C29.588,4.075 33.04,6.219 35,8.005L35,14.85C31.304,10.276 27.688,9.481 24.424,9.481C17.33,9.481 11.226,16.436 11.2,25.002C11.173,33.858 17.33,40.525 24.424,40.525C27.63,40.525 31.854,39.607 35,35.352L35,41.726Z" style="fill:rgb(185,67,67);"/>
    </g>
</svg>
